# xmcd
#
# Track frame offsets: 
#        150
#        12785
#        25663
#        39069
#        52663
#        65247
#        77492
#        92596
#        105850
#        120093
#        133126
#        146419
#        160011
#        172447
#        186548
#        199636
#        213050
#        226540
#        239850
#        252638
#        265425
#        278196
#        291087
#        304713
#
# Disc length: 4256 seconds
#
# Revision: 2
# Processed by: cddbd v1.5.2PL0 Copyright (c) Steve Scherf et al.
# Submitted via: ExactAudioCopy v1.3
#
DISCID=46109e18
DTITLE=Menphis Slim - The Ultimate Jazz Archive Set 14
DYEAR=2005
DGENRE=Blues
TTITLE0=The Jive Blues   
TTITLE1=Diggin' My Potatoes N°2   
TTITLE2=Last Pair Of Shoes Blues   
TTITLE3=Miss Ora Lee Blues   
TTITLE4=Blue Evening Blues   
TTITLE5=Blues At Midnight   
TTITLE6=Beer Drinking Woman   
TTITLE7=You Didn't Mean Me No   
TTITLE8=Grinder Man Blues   
TTITLE9=Empty Room Blues   
TTITLE10=Shelby County Blues   
TTITLE11=I See My Great Mistake   
TTITLE12=Old Taylor   
TTITLE13=I Believe I'll Settle Down   
TTITLE14=Jasper' Gal   
TTITLE15=You Got To Help Me Some   
TTITLE16=Two Of A Kind   
TTITLE17=Whiskey Store Blues   
TTITLE18=Maybe I'll Loan A Dime   
TTITLE19=Me, Myself, And I   
TTITLE20=You Gonna Worry Too 
TTITLE21=This Life I'm Living 
TTITLE22=Caught The Old Coon Last Night 
TTITLE23=Lend Me Your Love 
EXTD=YEAR: 2005
EXTT0=
EXTT1=
EXTT2=
EXTT3=
EXTT4=
EXTT5=
EXTT6=
EXTT7=
EXTT8=
EXTT9=
EXTT10=
EXTT11=
EXTT12=
EXTT13=
EXTT14=
EXTT15=
EXTT16=
EXTT17=
EXTT18=
EXTT19=
EXTT20=
EXTT21=
EXTT22=
EXTT23=
PLAYORDER=
